<?xml version="1.0" encoding="UTF-8"?>
<svg width="64px" height="42px" viewBox="0 0 64 42" version="1.1" xmlns="http://www.w3.org/2000/svg" xmlns:xlink="http://www.w3.org/1999/xlink">
    <title>abc</title>
    <g id="Page-1" stroke="none" stroke-width="1" fill="none" fill-rule="evenodd">
        <g id="abc" fill="#F40010" fill-rule="nonzero">
            <path d="M39.2969605,41.8932327 C30.8225525,40.7501729 28.5480101,28.9218432 40.4947765,26.8991326 C52.4415428,24.876422 64,33.3941813 64,33.3941813 C64,33.3941813 48.3323426,27.4693529 40.9298023,29.5859777 C33.5257672,31.7033509 34.7127449,37.0246587 37.4675348,39.5839152 C40.2223247,42.1435459 44.9784578,41.0405214 44.9784578,41.0405214 C44.9784578,41.0405214 42.9124588,42.3807635 39.2969605,41.8932327 Z" id="Shape"></path>
            <path d="M23.4588805,26.7472235 C29.7230284,27.4521415 32.6762709,30.7339016 31.1518117,33.257987 C30.3830419,34.5297578 28.9897632,34.7853094 28.9897632,34.7853094 C28.9897632,34.7853094 31.2695378,35.1789259 31.6369179,36.7750939 C32.281982,39.5760579 28.5371719,41.9388802 24.2616602,41.9388802 L15.5080732,30.1752803 L24.5692428,41.0408955 C27.2406902,41.0408955 30.2324273,39.35231 29.7174223,37.3846009 C29.4087185,36.2071185 27.4705364,35.9014296 25.4860112,36.1517428 C22.3047914,36.5517202 15.0050279,37.9428481 15.0050279,37.9428481 C15.0050279,37.9428481 19.8852405,36.5109366 22.8216648,35.5399906 C25.9356127,34.5103015 28.1025198,34.0066818 28.200438,32.8093688 C28.3073258,31.5147741 26.2174078,29.5848553 21.2048936,29.2170557 C13.1292593,28.6247599 8.8817842e-16,33.3945554 8.8817842e-16,33.3945554 C8.8817842e-16,33.3945554 11.4878215,25.4006206 23.4588805,26.7472235 Z" id="Shape"></path>
            <path d="M32.2550731,0 L37.9758125,26.9728421 C37.9758125,26.9728421 34.0164793,19.2157507 32.2550731,19.2157507 C30.4929195,19.2157507 26.5335864,26.9728421 26.5335864,26.9728421 L32.2550731,0 Z" id="Path"></path>
        </g>
    </g>
</svg>